<?xml version="1.0" encoding="UTF-8"?>
<svg width="164px" height="37px" viewBox="0 0 164 37" version="1.1" xmlns="http://www.w3.org/2000/svg" xmlns:xlink="http://www.w3.org/1999/xlink">
    <!-- Generator: Sketch 61.2 (89653) - https://sketch.com -->
    <title>Group 11</title>
    <desc>Created with Sketch.</desc>
    <g id="Page-1" stroke="none" stroke-width="1" fill="none" fill-rule="evenodd">
        <g id="Dashboard-Light---New-Message" transform="translate(-1388.000000, -377.000000)">
            <g id="Group-3" transform="translate(330.000000, 120.000000)">
                <g id="Gauge-3" transform="translate(1003.000000, 145.000000)">
                    <g id="Group-11" transform="translate(55.743455, 112.916230)">
                        <path d="M4.05758255,27.0513255 C4.70263413,27.0513255 5.33579537,26.9077585 5.70142368,26.5874938 C6.02246318,26.2644682 6.24837987,25.8696591 6.24837987,25.4058274 L6.24837987,3.18332091 C6.24837987,2.6808366 6.02246318,2.28878841 5.70142368,2.00165452 C5.33579537,1.6813898 4.70263413,1.53782285 4.05758255,1.50193111 L2.28294754,1.50193111 L2.28294754,27.0513255 L4.05758255,27.0513255 Z M4.05758255,-4.17443857e-13 C5.56765723,-4.17443857e-13 6.52483055,0.28713389 7.34526482,0.858640766 C8.12408286,1.39701681 8.57591623,2.1811132 8.57591623,3.18332091 L8.57591623,25.4058274 C8.57591623,26.4052742 8.12408286,27.1590007 7.34526482,27.7305076 C6.52483055,28.3020144 5.56765723,28.5863874 4.05758255,28.5863874 L5.32907052e-14,28.5863874 L5.32907052e-14,-4.17443857e-13 L4.05758255,-4.17443857e-13 L4.05758255,-4.17443857e-13 Z" id="Fill-160" fill="#020202"></path>
                        <path d="M4.05758255,27.0513255 C4.70263413,27.0513255 5.33579537,26.9077585 5.70142368,26.5874938 C6.02246318,26.2644682 6.24837987,25.8696591 6.24837987,25.4058274 L6.24837987,3.18332091 C6.24837987,2.6808366 6.02246318,2.28878841 5.70142368,2.00165452 C5.33579537,1.6813898 4.70263413,1.53782285 4.05758255,1.50193111 L2.28294754,1.50193111 L2.28294754,27.0513255 L4.05758255,27.0513255 Z M4.05758255,-4.17443857e-13 C5.56765723,-4.17443857e-13 6.52483055,0.28713389 7.34526482,0.858640766 C8.12408286,1.39701681 8.57591623,2.1811132 8.57591623,3.18332091 L8.57591623,25.4058274 C8.57591623,26.4052742 8.12408286,27.1590007 7.34526482,27.7305076 C6.52483055,28.3020144 5.56765723,28.5863874 4.05758255,28.5863874 L5.32907052e-14,28.5863874 L5.32907052e-14,-4.17443857e-13 L4.05758255,-4.17443857e-13 Z" id="Stroke-161" stroke="#FFFFFE" stroke-width="0.179"></path>
                        <path d="M160.621618,17.3916034 L162.942408,17.3916034 L162.942408,25.4715551 C162.942408,26.4596522 162.395641,27.2068835 161.623035,27.737883 C160.799912,28.304465 160.116452,28.5863874 158.657415,28.5863874 C157.926411,28.5863874 157.33507,28.5152225 156.743729,28.3728928 C156.196961,28.2333001 155.786886,28.0198055 155.373839,27.737883 C154.966735,27.4532235 154.734953,27.1357186 154.556659,26.7798942 C154.327849,26.3912244 154.369451,25.9642351 154.369451,25.4715551 L154.369451,3.15041478 C154.369451,2.65773479 154.327849,2.19790014 154.556659,1.8393386 C154.734953,1.45066884 154.966735,1.13316396 155.373839,0.851241525 C155.786886,0.602164423 156.196961,0.388669764 156.743729,0.246339991 C157.33507,0.10674733 157.926411,-4.17443857e-13 158.657415,-4.17443857e-13 C160.116452,-4.17443857e-13 160.799912,0.284659545 161.623035,0.851241525 C162.395641,1.41508639 162.942408,2.1623177 162.942408,3.15041478 L162.942408,11.1920469 L160.621618,11.1920469 L160.621618,3.15041478 C160.621618,2.69058013 160.481955,2.30191036 160.116452,2.01725082 C159.75095,1.69974594 159.296301,1.52457084 158.612842,1.52457084 C157.926411,1.52457084 157.516335,1.69974594 157.20135,2.01725082 C156.829904,2.30191036 156.743729,2.69058013 156.743729,3.15041478 L156.743729,25.4332355 C156.743729,25.8930702 156.829904,26.2844771 157.20135,26.6047191 C157.516335,26.9222239 157.926411,27.0645537 158.612842,27.0645537 C159.296301,27.0645537 159.75095,26.9222239 160.116452,26.6047191 C160.481955,26.2844771 160.621618,25.8930702 160.621618,25.4332355 L160.621618,17.3916034" id="Fill-162" fill="#020202"></path>
                        <path d="M160.621618,17.3916034 L162.942408,17.3916034 L162.942408,25.4715551 C162.942408,26.4596522 162.395641,27.2068835 161.623035,27.737883 C160.799912,28.304465 160.116452,28.5863874 158.657415,28.5863874 C157.926411,28.5863874 157.33507,28.5152225 156.743729,28.3728928 C156.196961,28.2333001 155.786886,28.0198055 155.373839,27.737883 C154.966735,27.4532235 154.734953,27.1357186 154.556659,26.7798942 C154.327849,26.3912244 154.369451,25.9642351 154.369451,25.4715551 L154.369451,3.15041478 C154.369451,2.65773479 154.327849,2.19790014 154.556659,1.8393386 C154.734953,1.45066884 154.966735,1.13316396 155.373839,0.851241525 C155.786886,0.602164423 156.196961,0.388669764 156.743729,0.246339991 C157.33507,0.10674733 157.926411,-4.17443857e-13 158.657415,-4.17443857e-13 C160.116452,-4.17443857e-13 160.799912,0.284659545 161.623035,0.851241525 C162.395641,1.41508639 162.942408,2.1623177 162.942408,3.15041478 L162.942408,11.1920469 L160.621618,11.1920469 L160.621618,3.15041478 C160.621618,2.69058013 160.481955,2.30191036 160.116452,2.01725082 C159.75095,1.69974594 159.296301,1.52457084 158.612842,1.52457084 C157.926411,1.52457084 157.516335,1.69974594 157.20135,2.01725082 C156.829904,2.30191036 156.743729,2.69058013 156.743729,3.15041478 L156.743729,25.4332355 C156.743729,25.8930702 156.829904,26.2844771 157.20135,26.6047191 C157.516335,26.9222239 157.926411,27.0645537 158.612842,27.0645537 C159.296301,27.0645537 159.75095,26.9222239 160.116452,26.6047191 C160.481955,26.2844771 160.621618,25.8930702 160.621618,25.4332355 L160.621618,17.3916034 Z" id="Stroke-163" stroke="#FFFFFE" stroke-width="0.179"></path>
                        <polyline id="Fill-164" fill="#020202" points="32.8743455 10.0052356 28.6565933 10.0052356 20.0104712 35.7329843 24.2309237 35.7329843 32.8743455 10.0052356"></polyline>
                        <polyline id="Fill-165" fill="#020202" points="134.423527 35.7329843 138.643979 35.7329843 129.997857 10.0052356 125.780105 10.0052356 134.423527 35.7329843"></polyline>
                        <polyline id="Fill-174" fill="#020202" points="54.1296069 21.4397906 51.4554974 35.7329843 54.5768557 35.7329843 57.1727749 21.8717651 54.1296069 21.4397906"></polyline>
                        <polyline id="Fill-175" fill="#020202" points="102.910995 21.8717651 105.502369 35.7329843 108.628272 35.7329843 105.952499 21.4397906 102.910995 21.8717651"></polyline>
                        <polygon id="Fill-176" fill="#020202" points="78.6125654 35.7329843 82.9005236 35.7329843 82.9005236 10.0052356 78.6125654 10.0052356"></polygon>
                    </g>
                </g>
            </g>
        </g>
    </g>
</svg>