<?xml version="1.0" encoding="UTF-8"?>
<svg width="116px" height="26px" viewBox="0 0 116 26" version="1.1" xmlns="http://www.w3.org/2000/svg" xmlns:xlink="http://www.w3.org/1999/xlink">
    <!-- Generator: Sketch 61.2 (89653) - https://sketch.com -->
    <title>Group 10</title>
    <desc>Created with Sketch.</desc>
    <g id="Page-1" stroke="none" stroke-width="1" fill="none" fill-rule="evenodd">
        <g id="Dashboard-Light---New-Message" transform="translate(-446.000000, -474.000000)">
            <g id="Group-3" transform="translate(330.000000, 120.000000)">
                <g id="Gauge-4" transform="translate(77.000000, 276.000000)">
                    <g id="Group-10" transform="translate(40.000000, 79.000000)">
                        <path d="M4.3718055,12.1677518 L6,12.1677518 L6,17.8207583 C6,18.5120643 5.61530526,19.0348525 5.07465319,19.4063577 C4.49865079,19.8027576 4.01830223,20 2.99938102,20 C2.48784099,20 2.07403421,19.9502106 1.658148,19.8506319 C1.27761212,19.7529682 0.988571211,19.6036002 0.701609729,19.4063577 C0.416727677,19.2072003 0.254532057,18.9850632 0.127686764,18.7361164 C-0.0303499948,18.46419 0.00292090175,18.1654538 0.00292090175,17.8207583 L0.00292090175,2.20413635 C0.00292090175,1.85944083 -0.0303499948,1.53772501 0.127686764,1.28686327 C0.254532057,1.01493681 0.416727677,0.792799694 0.701609729,0.595557258 C0.988571211,0.421294523 1.27761212,0.271926465 1.658148,0.172347759 C2.07403421,0.0746840291 2.48784099,0 2.99938102,0 C4.01830223,0 4.49865079,0.199157411 5.07465319,0.595557258 C5.61530526,0.990042129 6,1.51283033 6,2.20413635 L6,7.83033321 L4.3718055,7.83033321 L4.3718055,2.20413635 C4.3718055,1.88242053 4.2782311,1.61049406 4.01830223,1.41133665 C3.76669107,1.18919954 3.44645869,1.06664113 2.96611012,1.06664113 C2.48784099,1.06664113 2.20295893,1.18919954 1.98045981,1.41133665 C1.7246898,1.61049406 1.658148,1.88242053 1.658148,2.20413635 L1.658148,17.7939487 C1.658148,18.1156645 1.7246898,18.3895059 1.98045981,18.613558 C2.20295893,18.8356951 2.48784099,18.9352738 2.96611012,18.9352738 C3.44645869,18.9352738 3.76669107,18.8356951 4.01830223,18.613558 C4.2782311,18.3895059 4.3718055,18.1156645 4.3718055,17.7939487 L4.3718055,12.1677518" id="Fill-182" fill="#000000"></path>
                        <path d="M4.3718055,12.1677518 L6,12.1677518 L6,17.8207583 C6,18.5120643 5.61530526,19.0348525 5.07465319,19.4063577 C4.49865079,19.8027576 4.01830223,20 2.99938102,20 C2.48784099,20 2.07403421,19.9502106 1.658148,19.8506319 C1.27761212,19.7529682 0.988571211,19.6036002 0.701609729,19.4063577 C0.416727677,19.2072003 0.254532057,18.9850632 0.127686764,18.7361164 C-0.0303499948,18.46419 0.00292090175,18.1654538 0.00292090175,17.8207583 L0.00292090175,2.20413635 C0.00292090175,1.85944083 -0.0303499948,1.53772501 0.127686764,1.28686327 C0.254532057,1.01493681 0.416727677,0.792799694 0.701609729,0.595557258 C0.988571211,0.421294523 1.27761212,0.271926465 1.658148,0.172347759 C2.07403421,0.0746840291 2.48784099,0 2.99938102,0 C4.01830223,0 4.49865079,0.199157411 5.07465319,0.595557258 C5.61530526,0.990042129 6,1.51283033 6,2.20413635 L6,7.83033321 L4.3718055,7.83033321 L4.3718055,2.20413635 C4.3718055,1.88242053 4.2782311,1.61049406 4.01830223,1.41133665 C3.76669107,1.18919954 3.44645869,1.06664113 2.96611012,1.06664113 C2.48784099,1.06664113 2.20295893,1.18919954 1.98045981,1.41133665 C1.7246898,1.61049406 1.658148,1.88242053 1.658148,2.20413635 L1.658148,17.7939487 C1.658148,18.1156645 1.7246898,18.3895059 1.98045981,18.613558 C2.20295893,18.8356951 2.48784099,18.9352738 2.96611012,18.9352738 C3.44645869,18.9352738 3.76669107,18.8356951 4.01830223,18.613558 C4.2782311,18.3895059 4.3718055,18.1156645 4.3718055,17.7939487 L4.3718055,12.1677518 Z" id="Stroke-183" stroke="#000000" stroke-width="0.179"></path>
                        <polyline id="Fill-184" fill="#000000" points="112.4043 0 114 0 114 20 112.4043 20 112.4043 11.8356323 109.5957 11.8356323 109.5957 20 108 20 108 0 109.5957 0 109.5957 10.5623613 112.4043 10.5623613 112.4043 0"></polyline>
                        <polygon id="Stroke-185" stroke="#000000" stroke-width="0.179" points="112.4043 0 114 0 114 20 112.4043 20 112.4043 11.8356323 109.5957 11.8356323 109.5957 20 108 20 108 0 109.5957 0 109.5957 10.5623613 112.4043 10.5623613"></polygon>
                        <polyline id="Fill-186" fill="#000000" points="31.8713854 15 30 25 32.1855848 25 34 15.3022239 31.8713854 15"></polyline>
                        <polyline id="Fill-187" fill="#000000" points="78 15.3022239 79.8163001 25 82 25 80.1302285 15 78 15.3022239"></polyline>
                        <polyline id="Fill-188" fill="#000000" points="23 7 20.049769 7 14 25 16.948341 25 23 7"></polyline>
                        <polyline id="Fill-189" fill="#000000" points="95.0491184 25 98 25 91.9527708 7 89 7 95.0491184 25"></polyline>
                        <polyline id="Fill-198" fill="#000000" points="82 24.987 30 24.987 31.2348285 23.013 80.7651715 23.013 82 24.987"></polyline>
                    </g>
                </g>
            </g>
        </g>
    </g>
</svg>