<?xml version="1.0" encoding="UTF-8"?>
<svg width="387px" height="387px" viewBox="0 0 387 387" version="1.1" xmlns="http://www.w3.org/2000/svg" xmlns:xlink="http://www.w3.org/1999/xlink">
    <!-- Generator: Sketch 61.2 (89653) - https://sketch.com -->
    <title>Group 7</title>
    <desc>Created with Sketch.</desc>
    <g id="Page-1" stroke="none" stroke-width="1" fill="none" fill-rule="evenodd">
        <g id="Dashboard-Dark---Mew-Message" transform="translate(-922.000000, -164.000000)">
            <g id="Group-3" transform="translate(330.000000, 120.000000)">
                <g id="Large-Gauge" transform="translate(599.000000, 51.000000)">
                    <g id="Group-7">
                        <path d="M186.496098,0 C83.4978241,0 0,83.5041139 0,186.500976 C0,289.499788 83.4978241,373 186.496098,373 C289.494372,373 373,289.499788 373,186.500976 C373,83.5041139 289.494372,0 186.496098,0 Z" id="Stroke-23" stroke="#000000" stroke-width="12.378" stroke-linecap="round" stroke-linejoin="round"></path>
                        <path d="M186.498046,2 C84.6050867,2 2,84.6098696 2,186.501954 C2,288.395992 84.6050867,371 186.498046,371 C288.389051,371 371,288.395992 371,186.501954 C371,84.6098696 288.389051,2 186.498046,2" id="Fill-25" fill="#FFFFFF"></path>
                        <path d="M186.498044,12 C90.1293957,12 12,90.1333068 12,186.501956 C12,282.874515 90.1293957,361 186.498044,361 C282.866693,361 361,282.874515 361,186.501956 C361,90.1333068 282.866693,12 186.498044,12" id="Fill-26" fill="#000000"></path>
                        <path d="M186.498044,12 C90.1293957,12 12,90.1333068 12,186.501956 C12,282.874515 90.1293957,361 186.498044,361 C282.866693,361 361,282.874515 361,186.501956 C361,90.1333068 282.866693,12 186.498044,12 Z" id="Stroke-27" stroke="#F5CE00" stroke-width="8"></path>
                        <path d="M185.498047,36 C101.828329,36 34,103.832673 34,187.499023 C34,271.171234 101.828329,339 185.498047,339 C269.165812,339 337,271.171234 337,187.499023 C337,103.832673 269.165812,36 185.498047,36 Z M185.498047,329.109566 C107.291079,329.109566 43.89037,265.710402 43.89037,187.499023 C43.89037,109.295458 107.291079,45.8904337 185.498047,45.8904337 C263.703062,45.8904337 327.10963,109.295458 327.10963,187.499023 C327.10963,265.710402 263.703062,329.109566 185.498047,329.109566 Z" id="Stroke-28" stroke="#F5CE00"></path>
                    </g>
                </g>
            </g>
        </g>
    </g>
</svg>