<?xml version="1.0" encoding="UTF-8"?>
<svg width="249px" height="189px" viewBox="0 0 249 189" version="1.1" xmlns="http://www.w3.org/2000/svg" xmlns:xlink="http://www.w3.org/1999/xlink">
    <!-- Generator: Sketch 61.2 (89653) - https://sketch.com -->
    <title>Speed Reading</title>
    <desc>Created with Sketch.</desc>
    <g id="Page-1" stroke="none" stroke-width="1" fill="none" fill-rule="evenodd">
        <g id="Dashboard-Light---New-Message" transform="translate(-991.000000, -233.000000)" fill="#000000">
            <g id="Group-3" transform="translate(330.000000, 120.000000)">
                <g id="Large-Gauge" transform="translate(599.000000, 51.000000)">
                    <g id="Speed-Reading" transform="translate(62.000000, 62.000000)">
                        <path d="M27.6882267,177.499987 C38.8738842,171.602965 39.9288843,170.224815 39.6139023,169.617429 C39.2989203,169.004277 37.5798014,169.083084 26.3941438,174.982028 C16.1325601,180.390835 15.07756,181.765141 15.3906446,182.376371 C15.7056266,182.989523 17.4247455,182.906872 27.6882267,177.499987 Z M25.5080196,173.254054 C32.7526067,169.436751 39.4734886,166.35177 40.816906,168.977368 C42.1698108,171.604887 35.8189379,175.408736 28.5724534,179.224117 C22.2519402,182.557049 15.5329557,185.638186 14.1819484,183.01451 C12.8366335,180.386991 19.185609,176.585065 25.5080196,173.254054 L25.5080196,173.254054 Z" id="Fill-62"></path>
                        <path d="M30.1036296,144.545659 C30.9931589,144.364147 31.2759232,144.102171 31.1541775,143.200225 L32.1242161,143 L33,146.858533 L32.0279977,147.058757 C31.7452334,146.186751 31.3780326,146.059506 30.4865396,146.242889 L5.13593463,151.454341 C4.24640527,151.637725 3.96560461,151.895958 4.08538671,152.801647 L3.11338443,153 L2.86989295,151.920284 C2.80116552,151.611527 2.5753468,151.375749 2.19047317,151.16991 L2,150.322231 L30.1036296,144.545659" id="Fill-63"></path>
                        <path d="M15.6862947,142.037575 C28.271265,140.088457 29.7223462,139.088755 29.6227997,138.376693 C29.5213389,137.664631 27.8577643,137.149694 15.2747084,139.098812 C3.72731852,140.889024 2.27432301,141.886714 2.37386948,142.600787 C2.47533029,143.312849 4.13890486,143.827786 15.6862947,142.037575 Z M14.9894695,137.085327 C23.1407934,135.82011 30.5512619,135.104026 30.9819918,138.165488 C31.4108073,141.230974 24.1171145,142.789866 15.9677049,144.053071 C8.85396142,145.155359 1.44540726,145.873455 1.01850608,142.809981 C0.583947475,139.746507 7.87764033,138.187615 14.9894695,137.085327 L14.9894695,137.085327 Z" id="Fill-64"></path>
                        <path d="M24.9412525,112.631238 L28.4937328,113.204386 C30.9886942,113.609738 31.0337367,114.492084 30.9926109,114.965308 C30.9495268,115.440418 30.7086475,115.821259 30.5128107,116.164394 C30.3600579,116.471707 30.1642211,116.814842 30.1309288,117.171174 C30.1074284,117.450206 30.2836816,117.780144 30.7047308,118.176068 L30.6596883,118.69077 C29.8469654,118.983 28.6366937,119.082924 26.7429515,118.92644 C24.1892391,118.717165 20.4722558,117.650054 17.7657906,116.349159 C14.6656934,114.857843 9.82852346,113.30054 5.71399142,112.95929 C2.87239885,112.725506 1.49370749,112.851825 1.39774743,113.920821 C1.32920454,114.674963 2.56885175,115.655348 3.96908516,115.77224 C5.41044432,115.889132 6.39158689,115.570507 6.86747042,115.331067 C7.21605999,115.1595 7.67823494,115.078429 8.42045657,115.138761 C9.12155246,115.197207 9.70318788,115.644036 9.6463952,116.279401 C9.59156088,116.91288 8.59279299,117.38799 7.27676942,117.278639 L4.56051242,117.054282 C2.2555128,116.865746 -0.1689473,115.668546 0.00926422625,113.687037 C0.175725542,111.824306 2.34168101,110.766622 5.71790816,111.043769 C11.5616795,111.52642 15.8583398,113.556948 18.5569715,114.938913 C22.604919,116.950587 26.3297357,117.974335 28.1040175,117.60292 C27.9669317,117.271098 27.9160141,116.907224 27.947348,116.552777 C27.9786819,116.234152 28.0824755,115.964546 28.2273947,115.734533 C28.3762307,115.468698 28.5250667,115.200978 28.5446504,114.963423 C28.5701092,114.686276 28.260687,114.422326 27.7710949,114.341256 L24.8296255,113.858605 L24.9412525,112.631238" id="Fill-65"></path>
                        <path d="M15.2467079,107.82554 C27.828888,109.939417 29.5045926,109.478873 29.6197613,108.798656 C29.7330105,108.116511 28.2953213,107.131833 15.7150606,105.02181 C4.17131814,103.081359 2.49369411,103.541903 2.38044489,104.22212 C2.2652762,104.904265 3.70488491,105.887016 15.2467079,107.82554 Z M16.033694,103.096775 C24.1837988,104.462991 31.4643799,106.098982 30.9768324,109.026037 C30.4892849,111.95502 23.0724208,111.118718 14.9242355,109.750575 C7.81640741,108.557785 0.53390678,106.921795 1.02337374,103.994739 C1.51092123,101.067683 8.92586586,101.902058 16.033694,103.096775 L16.033694,103.096775 Z" id="Fill-66"></path>
                        <path d="M15.9138366,79.0536216 C20.9045461,80.9615944 21.9504218,82.5159587 22.0901306,84.0268312 L22.1677466,84.0551955 C23.2466092,83.0113887 24.9153534,82.3609005 30.0981624,84.3407296 C36.8429937,86.9199911 37.5318358,88.5953765 36.7382121,90.5638598 C36.0377276,92.3092105 33.3696773,92.2751734 31.235237,91.4601721 L28.7204783,90.5014583 C27.5019069,90.0343926 26.8033628,89.2534286 27.0711381,88.5859217 C27.3699597,87.8427767 28.0626826,87.7633566 28.7107763,88.0110716 C29.397678,88.2720233 29.9254668,88.8185091 30.3310105,89.2288461 C30.8199913,89.7602043 31.5515222,90.1251584 32.3917155,90.4447297 C33.5714789,90.8966678 35.0869315,90.9590692 35.4420247,90.0684298 C35.8339856,89.1040432 35.0209579,88.2795871 29.378274,86.1257903 C23.8539544,84.0135945 22.5364227,84.8815425 22.0610246,86.0709526 C22.0008722,86.220338 21.878627,86.3016491 21.7660838,86.2600481 L20.9646985,85.9537135 C20.8521552,85.9102215 20.7279696,85.7759638 20.8017048,85.5906503 C21.2809837,84.403131 20.8754401,83.0057159 15.1978289,80.8367914 C10.8901404,79.1916613 9.75112541,79.3996662 9.42125737,80.2165584 C9.05064092,81.145017 10.0577086,81.9165263 11.4295716,82.4403206 C12.4191758,82.8185114 13.5019191,82.9735697 14.117026,82.8676762 C14.6778016,82.7806923 15.1396169,82.8298571 15.8303994,83.0926998 C16.4765527,83.3385238 16.8995599,83.9285015 16.6608907,84.5241521 C16.4222215,85.1179117 15.3045509,85.3769725 14.0859796,84.9117977 L11.5712208,83.949302 C8.78868688,82.8884767 7.53130752,81.2074184 8.1580568,79.6473812 C8.63345486,78.459862 10.3875767,76.9433167 15.9138366,79.0536216" id="Fill-67"></path>
                        <path d="M24.8911903,77.5219737 C36.511679,82.9740954 38.2737146,83.0078083 38.5771114,82.4047223 C38.8824531,81.7997635 37.7680531,80.4868341 26.1475645,75.0347125 C15.4897774,70.0358417 13.7277418,70.0021289 13.4243449,70.6070877 C13.1151135,71.2101737 14.2334032,72.523103 24.8911903,77.5219737 Z M27.0130235,73.3322121 C34.5357097,76.8608267 41.1423708,80.3988061 39.8334856,82.9928248 C38.5207107,85.5849706 31.5542521,82.7568346 24.029621,79.2300929 C17.4657467,76.1491104 10.8551959,72.6092581 12.1679708,70.0171124 C13.4788008,67.4230936 20.4472043,70.2531025 27.0130235,73.3322121 L27.0130235,73.3322121 Z" id="Fill-68"></path>
                        <path d="M33.4591775,53.4227972 L33.4100393,53.4866034 L41.4824614,62.4929564 L42.9526761,60.6174385 L33.4591775,53.4227972 Z M44.1654067,61.5416628 L41.7871182,64.5772949 L26,46.8410828 L26.6584518,46 L44.0651648,59.1982322 L44.7747203,58.2933432 L45.9894164,59.2137004 L45.2798609,60.1185894 L49.4526761,63.2799006 C50.1740248,63.8290213 50.5651648,63.8657582 51.2137889,63.1716232 L52,63.769082 L49.4684004,67 L48.6802238,66.4044747 C49.1971575,65.6097965 49.0595706,65.2482276 48.338222,64.7010404 L44.1654067,61.5416628 L44.1654067,61.5416628 Z" id="Fill-69"></path>
                        <path d="M41.6232972,51.7118483 C51.3333204,60.4801822 53.0397751,61.01237 53.5132423,60.4919649 C53.990655,59.9695961 53.2922909,58.3317931 43.580295,49.5654231 C34.6712205,41.5217287 32.9647658,40.9895409 32.4893258,41.5099459 C32.0138858,42.0323147 32.71225,43.6701177 41.6232972,51.7118483 Z M44.9217854,48.0925786 C51.2090352,53.7679392 56.6026157,59.1978256 54.5607884,61.438513 C52.5209339,63.6792003 46.5690567,58.8639809 40.279834,53.1866566 C34.7935329,48.2320079 29.3999523,42.806049 31.4417796,40.5653617 C33.4816342,38.3246744 39.4335114,43.13793 44.9217854,48.0925786 L44.9217854,48.0925786 Z" id="Fill-70"></path>
                        <path d="M49.1229007,25.4917075 C49.0057119,25.3269028 48.9546781,25.1116873 49.0491852,25.0418876 C49.2438698,24.8964717 49.5387319,24.828611 49.8354842,24.7607502 C50.1322364,24.6928895 50.6784874,24.4893072 51.1944961,24.1034703 C51.7747696,23.6730392 52.1338966,23.2038306 52.3966263,22.8082993 C52.6895983,22.3875627 52.8162378,22.1452028 52.9428773,22.04632 C53.0714069,21.9532538 53.2074971,22.0036647 53.3227958,22.1684694 C53.4418747,22.3352129 53.64601,24.859633 52.3871756,25.7961114 C52.1603586,25.962855 51.7917809,26.1354152 51.4534455,26.2847089 L56.3999466,33.9219522 L56.4661015,33.8734802 C56.6248735,33.4023327 56.751513,32.9544517 57.1711244,32.6422922 C58.0103474,32.0199121 60.1688893,31.7290803 64.8942438,38.4201508 C70.0146379,45.675435 69.3511981,47.7325853 68.1547383,48.6205917 C66.7333517,49.6772806 64.6485253,48.3976207 63.2233584,46.3753702 L61.6791126,44.1902539 C60.9325066,43.1296872 60.7812952,42.0807538 61.3615688,41.6483839 C62.0079973,41.1694808 62.6166229,41.4738848 63.0154428,42.0361596 C63.4369444,42.6333342 63.5730347,43.3894969 63.6864432,43.963405 C63.8017418,44.6866068 64.204342,45.3942975 64.7184606,46.1252548 C65.4915286,47.2187824 66.7125602,47.9749451 67.3268562,47.5193086 C67.9430425,47.0636721 67.7861607,45.8673839 63.3878008,39.6377666 C59.7417173,34.4706548 58.418618,33.4333547 57.7079247,33.9607297 C57.1276512,34.3930997 57.3147752,35.5661213 57.7910909,36.7275097 L56.8876032,37.4003006 L49.1229007,25.4917075" id="Fill-71"></path>
                        <path d="M65.4771894,30.7959638 C72.3043706,41.9307906 73.7917138,42.9219924 74.3953305,42.5549533 C74.9989472,42.1879142 74.7937964,40.421416 67.9646426,29.2865892 C61.7016261,19.0703414 60.2142829,18.0791397 59.6106662,18.4461787 C59.0070495,18.8151806 59.2141729,20.579716 65.4771894,30.7959638 Z M69.6689722,28.2502436 C74.0935221,35.4614817 77.7250854,42.1820259 75.1330843,43.7561721 C72.5391105,45.3303182 68.1954373,39.0415847 63.7748325,31.8323094 C59.9144472,25.5396503 56.2809113,18.8191061 58.8748851,17.24496 C61.4668862,15.6708138 65.8105595,21.9575845 69.6689722,28.2502436 L69.6689722,28.2502436 Z" id="Fill-72"></path>
                        <path d="M91.977698,24.3821725 C89.9644463,18.7184598 89.4366425,17.6106338 88.5569694,17.8962152 C87.8792213,18.1185471 87.7952525,19.5138713 89.8085043,25.1756673 C92.2096118,31.9127062 93.5011318,33.7967771 94.140894,33.5878618 C94.8986124,33.3406134 94.4027967,31.1939609 91.977698,24.3821725 Z M87.9212057,25.8809959 C82.3232863,10.1510163 81.955423,6.98278719 84.5504585,6.13370946 C85.8679689,5.70437896 87.5233536,6.10112634 89.074777,10.4653476 C90.1503772,13.487911 89.9044686,14.551654 89.2687049,14.7586526 C88.6289427,14.9694845 88.0271663,14.5248208 87.7932533,13.8750751 C87.5493439,13.1850796 87.5173558,12.7250827 87.635312,12.175003 C87.7772592,11.5731736 87.7192808,10.7815955 87.4453826,10.0149339 C87.051529,8.90519119 86.2898121,7.01728697 84.9343159,7.4619507 C83.8127327,7.82611497 84.624431,10.8525117 87.0395334,18.1377137 L87.1175044,18.1108805 C87.1794814,17.5358843 87.5353491,16.7788059 88.2930675,16.5296409 C89.5306075,16.1252269 91.4698868,16.9436382 93.922975,23.8320928 C97.1097906,32.7886171 96.0401881,34.417773 94.6027224,34.8892699 C93.1652566,35.3588501 91.0520421,34.6822713 87.9212057,25.8809959 L87.9212057,25.8809959 Z" id="Fill-73"></path>
                        <path d="M95.9621634,17.8343695 C99.1803452,30.3908917 100.304437,31.7650532 100.993906,31.5935267 C101.679424,31.4220001 102.005391,29.6852939 98.7891849,17.1287717 C95.8377033,5.6092054 94.7116361,4.2369931 94.0241423,4.40851964 C93.3386242,4.57809701 93.0106818,6.3148032 95.9621634,17.8343695 Z M100.731157,16.6453788 C102.815369,24.777296 104.289135,32.2133612 101.339629,32.9481965 C98.3901225,33.6849809 96.1044035,26.4516289 94.0201912,18.3177625 C92.2026791,11.2228012 90.7289139,3.7886851 93.6784199,3.05190066 C96.6259504,2.31511621 98.9116694,9.55041743 100.731157,16.6453788 L100.731157,16.6453788 Z" id="Fill-74"></path>
                        <path d="M116.371259,0.259415524 L116.875507,0.234059119 C116.962319,0.39595001 117.086072,0.553939915 117.241226,0.544187452 C117.400073,0.536385481 117.586626,0.444712326 117.74178,0.39595001 C117.970815,0.261366016 118.240486,0.163841383 118.510157,0.152138427 C118.822311,0.134583994 119.140006,0.24186109 119.496489,0.388148039 C119.856666,0.536385481 120.170666,0.602702232 120.48282,0.587098291 C120.754338,0.573444842 120.93535,0.275019465 121.001844,0.0253564046 L121.507939,0 C121.68341,0.442761834 121.910599,1.13323624 121.980787,2.69363036 C122.097152,5.24097378 121.676022,7.98141596 120.959362,11.1080557 C120.272255,14.0259927 120.067231,18.9373332 120.209454,22.0620225 C120.342443,25.0209198 120.523455,27.234729 121.053562,29.5148549 C121.151456,29.9225079 121.326927,30.3262599 121.336162,30.5720219 C121.347245,30.7768237 121.313998,30.9036057 121.158844,30.9114077 L119.444771,30.9991798 C119.1751,31.0128333 119.010711,30.8548434 118.922052,30.6129823 C118.78537,30.2072798 118.600663,27.8276788 118.482451,25.1964642 C118.330992,21.909884 118.380863,15.3172189 119.232359,11.7302629 C119.952713,8.72845465 120.785738,4.69093485 120.656443,2.76189761 C120.429255,2.85552125 120.159584,2.91013505 119.845583,2.92768948 C119.494641,2.94329342 119.25637,2.83211534 119.019946,2.72093726 C118.698558,2.57269982 118.460287,2.45957124 118.185074,2.47517519 C117.719615,2.4985811 117.47765,3.12859023 117.363132,4.08238114 L117.091614,6.64922948 L116,6.70579376 L116.371259,0.259415524" id="Fill-75"></path>
                        <path d="M126.061643,14.9198008 C125.679611,27.9374222 126.377064,29.5741808 127.076477,29.5939596 C127.777849,29.6133846 128.569342,28.0236705 128.951374,15.004089 C129.304019,3.05869149 128.606566,1.42389308 127.903234,1.40411404 C127.199903,1.38468928 126.412329,2.97440332 126.061643,14.9198008 Z M130.937942,15.0628947 C130.689131,23.4956318 130.050452,31.0874474 127.035335,30.9992389 C124.020219,30.9110303 123.830183,23.2937322 124.077034,14.8609951 C124.29254,7.50440227 124.931219,-0.089373553 127.946335,0.00079518417 C130.961452,0.0870435414 131.151488,7.70434164 130.937942,15.0628947 L130.937942,15.0628947 Z" id="Fill-76"></path>
                        <path d="M151.493737,10.2990355 C150.287404,14.9124385 150.149366,16.7834729 151.21366,17.0440952 C152.275953,17.3086073 153.068171,15.5970582 154.276505,10.9856002 C155.330795,6.93039562 155.56486,4.69954689 154.502567,4.43892463 C153.440274,4.17635743 152.552029,6.24188607 151.493737,10.2990355 Z M147.840729,24.2987297 C146.590384,29.0716179 146.360321,31.2985767 147.422614,31.5630889 C148.484907,31.8237111 149.373152,29.7562375 150.619496,24.9833493 C151.739805,20.6889169 151.943861,18.5805995 150.881568,18.3180323 C149.813273,18.0554651 148.939032,20.0840399 147.840729,24.2987297 Z M156.301063,11.2326078 C155.052719,16.0035511 153.490288,17.8181822 152.161921,17.9154293 L152.137915,17.993227 C153.264225,18.6953511 153.662335,21.3346377 152.584038,25.4695849 C150.799545,32.3099467 148.829002,33.3485458 147.070517,32.9148237 C145.312031,32.4791566 144.089694,30.6548008 145.876187,23.814439 C146.954485,19.6775469 148.598938,17.5458903 149.931306,17.4486432 L149.951311,17.3689005 C148.829002,16.6687213 148.344868,14.3503502 149.591212,9.57746198 C151.127636,3.69012188 153.096179,2.65346767 154.854664,3.08718979 C156.613149,3.5209119 157.835486,5.34526771 156.301063,11.2326078 L156.301063,11.2326078 Z" id="Fill-77"></path>
                        <path d="M159.297744,20.531196 C154.991367,32.6368262 155.160862,34.3744672 155.830962,34.6001098 C156.497121,34.8296096 157.734835,33.5721824 162.047125,21.4684807 C166.000714,10.3657066 165.827277,8.62613695 165.157177,8.39856576 C164.491019,8.17099457 163.251334,9.42842183 159.297744,20.531196 Z M163.929317,22.1106943 C161.138548,29.9484004 158.231497,36.8854646 155.363863,35.9076799 C152.49623,34.9298952 154.620841,27.728617 157.41161,19.8909109 C159.849591,13.0502752 162.758613,6.113211 165.622305,7.09292427 C168.489938,8.06878039 166.365327,15.2719872 163.929317,22.1106943 L163.929317,22.1106943 Z" id="Fill-78"></path>
                        <path d="M181.486376,25.1085698 C178.360986,30.3160057 177.837454,31.4340956 178.62374,31.8867479 C179.23815,32.2388108 180.380043,31.3818665 183.505433,26.1744305 C187.221526,19.9843135 187.857667,17.7945596 187.28672,17.4637752 C186.599214,17.0710897 185.245932,18.8468795 181.486376,25.1085698 Z M185.271614,27.0971448 C176.82595,41.169989 174.822697,44.1818678 172.126011,42.6324042 C170.44083,41.6613295 170.679877,39.2433151 172.623861,36.0070445 C174.08185,33.579358 175.140768,33.1015584 175.715666,33.4323427 C176.294515,33.7631271 176.332051,34.4982035 175.976444,35.0959367 C175.595155,35.7284893 175.255352,36.0534704 174.7496,36.3300913 C174.186556,36.6221874 173.510903,37.1812324 173.094052,37.8853582 C172.12206,39.5044606 171.948208,40.9185155 172.847103,41.4369378 C173.850705,42.0133925 175.146695,40.5819279 179.866389,32.8849043 L179.793292,32.8442816 C179.500904,33.0067722 179.176907,33.1499186 178.793641,33.217623 C178.473595,33.2679178 178.161451,33.2272951 177.837454,33.043526 C176.614561,32.3394002 176.004103,30.3779069 179.805146,24.0465778 C184.744131,15.8137222 186.707871,15.5235604 187.99991,16.2683089 C189.293924,17.0130573 190.1296,19.0055013 185.271614,27.0971448 L185.271614,27.0971448 Z" id="Fill-79"></path>
                        <path d="M186.633916,33.7279183 C179.277,44.3945944 178.964842,46.141976 179.529425,46.5459722 C180.097861,46.9499684 181.606626,46.0576467 188.963541,35.3929317 C195.715409,25.6107327 196.031421,23.8594288 195.462985,23.4554326 C194.898402,23.0514364 193.389637,23.9457193 186.633916,33.7279183 Z M190.562871,36.534319 C185.795713,43.4414772 181.165365,49.4327799 178.735541,47.6971652 C176.307643,45.9615505 180.273209,39.4956503 185.03844,32.5884921 C189.20055,26.5618888 193.830898,20.5686249 196.256869,22.3042396 C198.68862,24.0418154 194.723054,30.5077156 190.562871,36.534319 L190.562871,36.534319 Z" id="Fill-80"></path>
                        <path d="M194.696035,57.5796528 C194.050634,58.2075091 193.961479,58.5834477 194.558427,59.3140089 L193.854882,60 L191,57.0719419 L191.701607,56.3878886 C192.416781,57.0041179 192.794719,56.9207913 193.438181,56.292935 L211.755552,38.4184094 C212.399015,37.7905531 212.490107,37.4165523 211.89316,36.6859911 L212.592829,36 L213.391343,36.8197013 C213.621982,37.0541784 213.939837,37.1433185 214.372042,37.1200646 L215,37.7634235 L194.696035,57.5796528" id="Fill-81"></path>
                        <path d="M207.477307,52.0747986 C197.729052,60.395725 196.998319,61.9812145 197.445628,62.509711 C197.896793,63.0343498 199.578058,62.5617891 209.326313,54.2427915 C218.270568,46.6085247 219.001301,45.0211064 218.552064,44.4945387 C218.104755,43.9698999 216.421562,44.4424606 207.477307,52.0747986 Z M210.591118,55.7279823 C204.280589,61.1151746 198.322893,65.6671881 196.394837,63.4066119 C194.46678,61.1460357 199.898116,55.9768 206.208645,50.5876789 C211.717103,45.8871463 217.674798,41.3370615 219.602855,43.5976378 C221.530912,45.8562852 216.101504,51.0274497 210.591118,55.7279823 L210.591118,55.7279823 Z" id="Fill-82"></path>
                        <path d="M213.596036,59.0483263 C202.940003,66.4222149 202.053642,67.9287289 202.461368,68.4850684 C202.873033,69.0452316 204.62409,68.722134 215.284062,61.3482454 C225.063583,54.5823154 225.947974,53.0777133 225.536309,52.5175501 C225.128583,51.9592987 223.375557,52.2823963 213.596036,59.0483263 Z M216.442241,62.921673 C209.540441,67.6993105 203.073942,71.6778073 201.311068,69.2822972 C199.550163,66.8848753 205.536057,62.2468007 212.437857,57.4729868 C218.461175,53.3052198 224.929644,49.326723 226.686609,51.7241449 C228.449483,54.119655 222.467529,58.7558178 216.442241,62.921673 L216.442241,62.921673 Z" id="Fill-83"></path>
                        <path d="M210.332382,79.8788612 C209.54874,80.3042761 209.358535,80.6446081 209.71612,81.5350115 L208.8602,82 L207,78.3038364 L207.850214,77.838848 C208.34855,78.6501044 208.727057,78.6797845 209.510699,78.2523909 L231.758916,66.1211388 C232.540656,65.6937452 232.732763,65.3534132 232.37708,64.4649885 L233.231098,64 L233.750357,65.0348467 C233.898716,65.3316478 234.170709,65.5117072 234.587256,65.6165769 L235,66.429812 L210.332382,79.8788612" id="Fill-84"></path>
                        <path d="M212.314452,85.0488265 C211.497932,85.4167944 211.288965,85.7338129 211.610155,86.5961788 L210.722044,87 L209,83.3882533 L209.89198,82.9863191 C210.360222,83.7826395 210.741393,83.8298148 211.554043,83.4599599 L234.728116,72.9511735 C235.538831,72.5813186 235.751668,72.2661871 235.430478,71.4019342 L236.318588,71 L236.798439,72.01144 C236.93775,72.3001533 237.206699,72.4869678 237.622698,72.6039627 L238,73.398396 L212.314452,85.0488265" id="Fill-85"></path>
                        <path d="M226.48131,84.4280041 C214.396816,89.2191907 213.166727,90.5216881 213.418204,91.1909713 C213.66773,91.8622585 215.431961,91.9784813 227.516456,87.1892986 C238.604793,82.7948727 239.832932,81.4923753 239.581456,80.8210882 C239.331929,80.1518049 237.567698,80.0335783 226.48131,84.4280041 Z M228.224097,89.0829294 C220.401049,92.1848771 213.19207,94.5874838 212.112088,91.7079626 C211.030156,88.8304453 217.944772,85.6363209 225.769769,82.5363771 C232.59861,79.8271825 239.807589,77.4245758 240.887572,80.3061008 C241.969503,83.1836181 235.054888,86.3757387 228.224097,89.0829294 L228.224097,89.0829294 Z" id="Fill-86"></path>
                        <path d="M218.860965,106.421359 C217.968752,106.6 217.686381,106.866019 217.79227,107.803883 L216.81966,108 L216,103.984466 L216.974571,103.790291 C217.241255,104.697087 217.609906,104.83301 218.502119,104.654369 L243.882156,99.5786408 C244.774369,99.4 245.058701,99.1339806 244.954773,98.1941748 L245.927383,98 L246.156809,99.1242718 C246.22348,99.4446602 246.441141,99.6932039 246.819596,99.9106796 L247,100.792233 L218.860965,106.421359" id="Fill-87"></path>
                        <path d="M223.963022,113.784245 L220.371095,113.985049 C217.848148,114.123339 217.603866,113.268975 217.535467,112.79538 C217.465113,112.319891 217.615591,111.895551 217.72503,111.51857 C217.801246,111.185159 217.912639,110.806284 217.861828,110.450141 C217.820788,110.171667 217.572598,109.883722 217.072308,109.588199 L217,109.074822 C217.72503,108.612594 218.878042,108.256451 220.756084,108.00071 C223.290757,107.661617 227.152371,107.905991 230.083758,108.601228 C233.443128,109.396867 238.508565,109.885616 242.592965,109.334352 C245.409051,108.955477 246.722312,108.534925 246.56988,107.466496 C246.462396,106.714428 245.031879,106.019191 243.642402,106.206734 C242.20993,106.399961 241.32856,106.922809 240.92012,107.260008 C240.623073,107.502489 240.191182,107.68056 239.454426,107.780962 C238.764573,107.875681 238.092308,107.561215 238.000458,106.928492 C237.912517,106.293876 238.77239,105.615689 240.077835,105.437617 L242.772757,105.072002 C245.059239,104.765113 247.691624,105.420568 247.974992,107.398298 C248.240771,109.258577 246.374454,110.760819 243.02681,111.213575 C237.23048,111.994058 232.5813,110.927524 229.642096,110.154618 C225.237198,109.05209 221.377538,108.847497 219.735961,109.591987 C219.947021,109.885616 220.079911,110.232287 220.130722,110.58843 C220.17567,110.902897 220.13463,111.192737 220.046688,111.448478 C219.962655,111.740212 219.882531,112.03384 219.911845,112.270638 C219.954838,112.547217 220.312468,112.742338 220.808849,112.715816 L223.787139,112.556689 L223.963022,113.784245" id="Fill-88"></path>
                        <path d="M233.954294,117.098793 C220.934763,117.835462 219.366925,118.637737 219.408132,119.3088 C219.451301,119.979862 221.107441,120.600313 234.121085,119.86177 C246.063341,119.185084 247.631179,118.384683 247.589972,117.713621 C247.550727,117.042559 245.892625,116.422108 233.954294,117.098793 Z M234.240783,121.756864 C225.808993,122.232981 218.181725,122.27047 218.00316,119.387527 C217.822633,116.506459 225.402807,115.68169 233.834597,115.205574 C241.189111,114.787566 248.816378,114.751951 248.996906,117.633019 C249.17547,120.515961 241.595297,121.340731 234.240783,121.756864 L234.240783,121.756864 Z" id="Fill-89"></path>
                        <path d="M220.405223,134.27585 C219.499842,134.190973 219.153725,134.370832 218.985555,135.338835 L218,135.245874 L218.377405,131 L219.36296,131.097002 C219.359049,132.079151 219.668012,132.321657 220.573393,132.408555 L246.289724,134.865948 C247.19315,134.952846 247.541222,134.770967 247.709393,133.802964 L248.694947,133.895925 L248.587397,135.086224 C248.558065,135.423712 248.694947,135.736948 249,136.066352 L248.912004,137 L220.405223,134.27585" id="Fill-90"></path>
                        <path d="M240.64034,145.77532 C235.416636,144.994762 234.063831,143.721707 233.595037,142.303692 L233.516585,142.292541 C232.709112,143.520992 231.249153,144.492974 225.822624,143.680821 C218.762013,142.625208 217.726839,141.16259 218.052124,139.108977 C218.341055,137.287673 220.914638,136.759867 223.145715,137.094392 L225.780528,137.48653 C227.058709,137.677953 227.904452,138.280098 227.791559,138.978884 C227.669098,139.753867 227.022354,139.973167 226.341167,139.870951 C225.623626,139.765018 224.996016,139.352437 224.513828,139.04393 C223.924487,138.638783 223.139974,138.441785 222.261703,138.309833 C221.023704,138.125845 219.554179,138.380455 219.40493,139.311551 C219.248027,140.318843 220.212404,140.937715 226.113467,141.820489 C231.899724,142.684679 232.97508,141.577029 233.170252,140.337428 C233.195127,140.181316 233.292712,140.077241 233.413259,140.093968 L234.249435,140.220344 C234.373809,140.23707 234.51923,140.339286 234.488615,140.532567 C234.29153,141.772169 234.993765,143.026638 240.935011,143.914989 C245.443087,144.589614 246.493568,144.151015 246.627509,143.297975 C246.780585,142.329711 245.640172,141.801905 244.205088,141.58818 C243.166087,141.433927 242.090731,141.511983 241.526265,141.744292 C241.001981,141.943149 240.546582,141.993327 239.82904,141.885536 C239.149767,141.78332 238.614002,141.309409 238.711588,140.688679 C238.809174,140.069808 239.825213,139.584746 241.099567,139.77431 L243.734381,140.168307 C246.646644,140.605048 248.230976,141.952441 247.972661,143.576746 C247.775576,144.818207 246.424684,146.63951 240.64034,145.77532" id="Fill-91"></path>
                        <path d="M231.848992,148.779336 C219.286508,145.936162 217.563198,146.269347 217.399998,146.915354 C217.240685,147.559511 218.622053,148.596085 231.186479,151.439258 C242.709537,154.045501 244.436733,153.714168 244.596047,153.06816 C244.759246,152.422152 243.373993,151.38743 231.848992,148.779336 Z M230.729909,153.260667 C222.595186,151.422599 215.354175,149.38277 216.04583,146.608084 C216.735543,143.835249 224.168896,145.114307 232.301677,146.956077 C239.400859,148.562766 246.645756,150.600744 245.954101,153.373579 C245.264388,156.148265 237.831035,154.867356 230.729909,153.260667 L230.729909,153.260667 Z" id="Fill-92"></path>
                        <path d="M213.507655,161.522348 C212.69019,161.191414 212.312898,161.256079 211.893686,162.079609 L211,161.716343 L212.511072,158 L213.404757,158.363266 C213.132269,159.247657 213.355214,159.555767 214.174584,159.8867 L237.49044,169.335416 C238.30981,169.668252 238.685196,169.603586 239.106314,168.778155 L240,169.141421 L239.575071,170.183671 C239.455023,170.478468 239.496945,170.799891 239.691307,171.180274 L239.359748,172 L213.507655,161.522348" id="Fill-93"></path>
                        <path d="M228.315319,175.082031 L228.348706,175.009766 L218.54849,167.792969 L217.513477,169.949219 L228.315319,175.082031 Z M216.128877,169.292969 L217.808073,165.798828 L237,180.033203 L236.534539,181 L216.721996,171.583984 L216.223148,172.625 L214.842476,171.966797 L215.341325,170.927734 L210.59637,168.669922 C209.771502,168.277344 209.3846,168.324219 208.897535,169.142578 L208,168.716797 L209.787214,165 L210.684749,165.423828 C210.346946,166.316406 210.559055,166.642578 211.379995,167.033203 L216.128877,169.292969 L216.128877,169.292969 Z" id="Fill-94"></path>
                        <path d="M220.677934,179.536102 C209.523518,173.142438 207.777002,172.97953 207.427699,173.573665 C207.076455,174.167801 208.087494,175.591809 219.238029,181.981641 C229.472613,187.850166 231.223011,188.013074 231.572314,187.417022 C231.919676,186.824803 230.912519,185.402711 220.677934,179.536102 Z M218.252217,183.660553 C211.033284,179.52077 204.722539,175.436568 206.222602,172.883702 C207.724606,170.330835 214.442872,173.715491 221.663746,177.855274 C227.966728,181.471834 234.273592,185.556037 232.77741,188.108903 C231.275406,190.661769 224.5552,187.277113 218.252217,183.660553 L218.252217,183.660553 Z" id="Fill-95"></path>
                    </g>
                </g>
            </g>
        </g>
    </g>
</svg>