<?xml version="1.0" encoding="UTF-8"?>
<svg width="1490px" height="163px" viewBox="0 0 1490 163" version="1.1" xmlns="http://www.w3.org/2000/svg" xmlns:xlink="http://www.w3.org/1999/xlink">
    <!-- Generator: Sketch 61.2 (89653) - https://sketch.com -->
    <title>Cluster Top</title>
    <desc>Created with Sketch.</desc>
    <g id="Page-1" stroke="none" stroke-width="1" fill="none" fill-rule="evenodd">
        <g id="Dashboard-Light---New-Message" transform="translate(-370.000000, -200.000000)">
            <g id="Group-3" transform="translate(330.000000, 120.000000)">
                <g id="Group-4" transform="translate(40.000000, 80.000000)">
                    <g id="Cluster-Top">
                        <path d="M1473.41765,163 C1464.25838,163 1456.8353,155.753071 1456.8353,146.815519 C1456.8353,83.7093817 1404.23075,32.3689612 1339.57527,32.3689612 L150.424732,32.3689612 C85.7672358,32.3689612 33.1646976,83.7093817 33.1646976,146.815519 C33.1646976,155.753071 25.7416249,163 16.5823488,163 C7.42307277,163 0,155.753071 0,146.815519 C0,65.8617358 67.4808356,0 150.424732,0 L1339.57527,0 C1422.51916,0 1490,65.8617358 1490,146.815519 C1490,155.753071 1482.57693,163 1473.41765,163" id="Fill-15" fill="#0A0B09"></path>
                        <path d="M1473.25382,149 C1471.72592,149 1470.48952,147.800952 1470.48952,146.323553 C1470.48952,76.3115853 1411.65936,19.354841 1339.35151,19.354841 L149.668605,19.354841 C77.3587481,19.354841 18.5305943,76.3115853 18.5305943,146.323553 C18.5305943,147.800952 17.2942019,149 15.7663024,149 C14.2384028,149 13,147.800952 13,146.323553 C13,73.358734 74.3109906,14 149.668605,14 L1339.35151,14 C1414.70913,14 1476.01811,73.358734 1476.01811,146.323553 C1476.01811,147.800952 1474.78172,149 1473.25382,149" id="Fill-18" fill="#FFFFFE"></path>
                        <path d="M1473.48174,152 C1470.42497,152 1467.94939,149.592802 1467.94939,146.622426 C1467.94939,77.7718743 1410.34541,21.7571042 1339.537,21.7571042 L149.477083,21.7571042 C78.668673,21.7571042 21.0626829,77.7718743 21.0626829,146.622426 C21.0626829,149.592802 18.5871034,152 15.532347,152 C12.4775905,152 10,149.592802 10,146.622426 C10,71.8389432 72.5692152,11 149.477083,11 L1339.537,11 C1416.44487,11 1479.01408,71.8389432 1479.01408,146.622426 C1479.01408,149.592802 1476.53851,152 1473.48174,152" id="Fill-17" fill="#E3B400"></path>
                    </g>
                </g>
            </g>
        </g>
    </g>
</svg>