<?xml version="1.0" encoding="UTF-8"?>
<svg width="123px" height="31px" viewBox="0 0 123 31" version="1.1" xmlns="http://www.w3.org/2000/svg" xmlns:xlink="http://www.w3.org/1999/xlink">
    <!-- Generator: Sketch 61.2 (89653) - https://sketch.com -->
    <title>Group 9</title>
    <desc>Created with Sketch.</desc>
    <g id="Page-1" stroke="none" stroke-width="1" fill="none" fill-rule="evenodd">
        <g id="Dashboard-Light---New-Message" transform="translate(-706.000000, -357.000000)">
            <g id="Group-3" transform="translate(330.000000, 120.000000)">
                <g id="Gauge-2" transform="translate(298.000000, 145.000000)">
                    <g id="Group-9" transform="translate(79.000000, 93.000000)">
                        <polyline id="Fill-142" fill="#000000" points="2.21690722 27.1901225 7 27.1901225 7 29 0 29 0 0 2.21690722 0 2.21690722 27.1901225"></polyline>
                        <polygon id="Stroke-143" stroke="#000000" stroke-width="0.179" points="2.21690722 27.1901225 7 27.1901225 7 29 0 29 0 0 2.21690722 0"></polygon>
                        <polyline id="Fill-144" fill="#000000" points="118.60957 0 121 0 121 29 118.60957 29 118.60957 17.1616668 114.393551 17.1616668 114.393551 29 112 29 112 0 114.393551 0 114.393551 15.3154239 118.60957 15.3154239 118.60957 0"></polyline>
                        <polygon id="Stroke-145" stroke="#000000" stroke-width="0.179" points="118.60957 0 121 0 121 29 118.60957 29 118.60957 17.1616668 114.393551 17.1616668 114.393551 29 112 29 112 0 114.393551 0 114.393551 15.3154239 118.60957 15.3154239"></polygon>
                        <polyline id="Fill-154" fill="#000000" points="95 21.9805 21 21.9805 22.7573231 19.0195 93.2426769 19.0195 95 21.9805"></polyline>
                    </g>
                </g>
            </g>
        </g>
    </g>
</svg>