<?xml version="1.0" encoding="UTF-8"?>
<svg width="275px" height="275px" viewBox="0 0 275 275" version="1.1" xmlns="http://www.w3.org/2000/svg" xmlns:xlink="http://www.w3.org/1999/xlink">
    <!-- Generator: Sketch 61.2 (89653) - https://sketch.com -->
    <title>Group 8</title>
    <desc>Created with Sketch.</desc>
    <g id="Page-1" stroke="none" stroke-width="1" fill="none" fill-rule="evenodd">
        <g id="Dashboard-Light---New-Message" transform="translate(-627.000000, -264.000000)">
            <g id="Group-3" transform="translate(330.000000, 120.000000)">
                <g id="Gauge-2" transform="translate(298.000000, 145.000000)">
                    <g id="Group-8">
                        <path d="M273,136.498608 C273,211.885667 211.889989,273 136.501392,273 C61.1127951,273 0,211.885667 0,136.498608 C0,61.1115485 61.1127951,0 136.501392,0 C211.889989,0 273,61.1115485 273,136.498608" id="Fill-137" fill="#FFFFFE"></path>
                        <path d="M273,136.498608 C273,211.885667 211.889989,273 136.501392,273 C61.1127951,273 0,211.885667 0,136.498608 C0,61.1115485 61.1127951,0 136.501392,0 C211.889989,0 273,61.1115485 273,136.498608 Z" id="Stroke-138" stroke="#000000" stroke-width="1.724"></path>
                        <path d="M273,136.498608 C273,211.885667 211.889989,273 136.501392,273 C61.1127951,273 0,211.885667 0,136.498608 C0,61.1115485 61.1127951,0 136.501392,0 C211.889989,0 273,61.1115485 273,136.498608" id="Fill-139" fill="#FFFFFE"></path>
                        <path d="M271,136.498608 C271,62.2155834 210.784885,2 136.501392,2 C62.2173555,2 2,62.2161272 2,136.498608 C2,210.781632 62.2178992,271 136.501392,271 C210.784341,271 271,210.782176 271,136.498608 Z" id="Stroke-140" stroke="#000000" stroke-width="4" fill="#FFFFFF"></path>
                        <path d="M260,136.5 C260,204.710652 204.708487,260 136.501395,260 C68.2915128,260 13,204.710652 13,136.5 C13,68.2921372 68.2915128,13 136.501395,13 C204.708487,13 260,68.2921372 260,136.5" id="Fill-141" stroke="#00882D" stroke-width="5" fill="#F1F5F8"></path>
                        <path d="M237,137 C237,192.226526 192.228782,237 137.001453,237 C81.7712181,237 37,192.226526 37,137 C37,81.7734736 81.7712181,37 137.001453,37 C192.228782,37 237,81.7734736 237,137 Z" id="Stroke-147" stroke="#00882D"></path>
                        <line x1="38.5" y1="144.5" x2="62.5" y2="144.5" id="Line-6" stroke="#00882D" stroke-width="2" stroke-linecap="square"></line>
                        <line x1="211.5" y1="144.5" x2="235.5" y2="144.5" id="Line-6" stroke="#00882D" stroke-width="2" stroke-linecap="square"></line>
                    </g>
                </g>
            </g>
        </g>
    </g>
</svg>