<?xml version="1.0" encoding="UTF-8"?>
<svg width="281px" height="281px" viewBox="0 0 281 281" version="1.1" xmlns="http://www.w3.org/2000/svg" xmlns:xlink="http://www.w3.org/1999/xlink">
    <!-- Generator: Sketch 61.2 (89653) - https://sketch.com -->
    <title>Group 12</title>
    <desc>Created with Sketch.</desc>
    <g id="Page-1" stroke="none" stroke-width="1" fill="none" fill-rule="evenodd">
        <g id="Dashboard-Light---New-Message" transform="translate(-1329.000000, -261.000000)">
            <g id="Group-3" transform="translate(330.000000, 120.000000)">
                <g id="Gauge-3" transform="translate(1003.000000, 145.000000)">
                    <g id="Group-12">
                        <path d="M273,136.498608 C273,211.885667 211.885044,273 136.5,273 C61.1149562,273 0,211.885667 0,136.498608 C0,61.1115485 61.1149562,0 136.5,0 C211.885044,0 273,61.1115485 273,136.498608" id="Fill-155" fill="#FFFFFE"></path>
                        <path d="M275,136.498608 C275,212.989804 212.990046,275 136.5,275 C60.0099545,275 -2,212.989804 -2,136.498608 C-2,60.0079298 60.009436,-2 136.5,-2 C212.990564,-2 275,60.0079298 275,136.498608 Z" id="Stroke-156" stroke="#000000" stroke-width="4"></path>
                        <path d="M273,136.498608 C273,211.885667 211.885044,273 136.5,273 C61.1149562,273 0,211.885667 0,136.498608 C0,61.1115485 61.1149562,0 136.5,0 C211.885044,0 273,61.1115485 273,136.498608" id="Fill-157" fill="#FFFFFE"></path>
                        <path d="M260.136126,136.5 C260.136126,204.785836 204.778084,260.136126 136.501396,260.136126 C68.2191238,260.136126 12.8638743,204.785836 12.8638743,136.5 C12.8638743,68.2169564 68.2191238,12.8638743 136.501396,12.8638743 C204.778084,12.8638743 260.136126,68.2169564 260.136126,136.5" id="Fill-159" stroke="#FCCD00" stroke-width="5" fill="#F1F5F8"></path>
                    </g>
                </g>
            </g>
        </g>
    </g>
</svg>